<svg width="3098" height="1000" viewBox="0 0 3098 1000" fill="none" xmlns="http://www.w3.org/2000/svg">
<path d="M908.663 800V323.871H1106.33C1135.67 323.871 1161.88 326.516 1184.96 331.807C1208.05 336.616 1227.77 344.071 1244.12 354.17C1260.95 364.27 1273.69 377.496 1282.35 393.848C1291.49 409.719 1296.06 428.716 1296.06 450.839C1296.06 469.595 1291.97 485.947 1283.79 499.895C1276.1 513.842 1263.84 525.144 1247 533.801C1230.65 542.458 1209.01 548.469 1182.08 551.836V562.657C1227.77 566.024 1261.19 577.566 1282.35 597.285C1303.99 616.522 1314.82 642.493 1314.82 675.197C1314.82 702.61 1307.6 725.695 1293.17 744.452C1279.23 762.727 1258.06 776.674 1229.69 786.293C1201.31 795.431 1166.21 800 1124.36 800H908.663ZM1007.5 716.317H1122.92C1153.7 716.317 1176.55 711.748 1191.45 702.61C1206.36 692.991 1213.82 678.323 1213.82 658.604C1213.82 636 1204.44 619.167 1185.68 608.106C1166.93 596.563 1138.55 590.792 1100.56 590.792H1007.5V716.317ZM1007.5 525.865H1085.41C1122.92 525.865 1150.33 520.815 1167.65 510.716C1185.44 500.135 1194.34 484.745 1194.34 464.546C1194.34 444.346 1186.4 429.678 1170.53 420.54C1154.66 410.921 1130.38 406.112 1097.67 406.112H1007.5V525.865ZM1396.06 800V616.763V421.261H1481.91L1482.63 550.393H1496.33C1500.18 518.17 1506.67 491.959 1515.81 471.76C1525.43 451.56 1538.66 436.651 1555.49 427.032C1572.32 417.414 1593.24 412.604 1618.25 412.604C1622.58 412.604 1627.15 412.845 1631.96 413.326C1637.25 413.326 1643.26 414.047 1649.99 415.49L1645.66 525.865C1638.45 522.499 1630.52 520.094 1621.86 518.651C1613.2 517.208 1605.51 516.487 1598.77 516.487C1580.02 516.487 1563.91 520.815 1550.44 529.472C1536.97 538.129 1525.91 550.634 1517.25 566.985C1509.08 582.856 1503.55 602.334 1500.66 625.419V800H1396.06ZM1837.97 810.1C1793.72 810.1 1760.3 795.191 1737.7 765.372C1715.57 735.073 1704.51 689.144 1704.51 627.584V421.261H1808.39V614.598C1808.39 651.631 1813.92 679.284 1824.99 697.56C1836.05 715.355 1852.88 724.252 1875.48 724.252C1888.95 724.252 1900.73 720.886 1910.83 714.153C1920.93 707.419 1929.59 698.041 1936.8 686.018C1944.02 673.994 1949.31 659.806 1952.67 643.455C1956.52 627.103 1958.69 609.548 1959.17 590.792V421.261H2063.05V645.619V800H1979.37L1978.65 681.689H1965.66C1958.45 711.507 1949.31 736.035 1938.25 755.273C1927.67 774.029 1913.96 787.977 1897.13 797.114C1880.77 805.771 1861.06 810.1 1837.97 810.1ZM2296.12 810.1C2264.37 810.1 2236.48 801.924 2212.43 785.572C2188.87 769.22 2170.59 746.135 2157.6 716.317C2144.62 686.499 2138.13 651.15 2138.13 610.27C2138.13 571.795 2143.9 537.648 2155.44 507.83C2166.98 478.012 2184.06 454.686 2206.66 437.853C2229.26 421.021 2257.4 412.604 2291.07 412.604C2315.59 412.604 2336.27 417.173 2353.11 426.311C2369.94 435.449 2383.65 448.915 2394.23 466.71C2405.29 484.024 2413.94 504.944 2420.2 529.472H2436.79C2433.42 514.082 2430.3 499.173 2427.41 484.745C2425.01 469.836 2423.08 455.648 2421.64 442.182C2420.2 428.716 2419.48 416.933 2419.48 406.833V284.194H2523.36V613.877V800H2436.79V690.346H2422.36C2417.07 717.279 2408.9 739.642 2397.83 757.437C2386.77 775.232 2372.58 788.457 2355.27 797.114C2338.44 805.771 2318.72 810.1 2296.12 810.1ZM2330.74 724.974C2346.61 724.974 2360.08 721.607 2371.14 714.874C2382.2 708.141 2391.34 699.484 2398.55 688.903C2405.77 677.842 2411.06 666.059 2414.43 653.554C2417.79 640.569 2419.48 628.546 2419.48 617.484V603.777C2419.48 594.639 2418.03 585.261 2415.15 575.642C2412.74 565.543 2409.14 555.683 2404.33 546.065C2399.52 536.446 2393.51 528.029 2386.29 520.815C2379.08 513.12 2370.66 507.109 2361.04 502.78C2351.42 498.452 2340.84 496.287 2329.3 496.287C2311.99 496.287 2297.32 501.097 2285.29 510.716C2273.27 520.334 2263.89 533.801 2257.16 551.114C2250.43 567.947 2247.06 587.666 2247.06 610.27C2247.06 633.355 2250.43 653.554 2257.16 670.868C2264.37 688.182 2274.23 701.648 2286.74 711.267C2299.24 720.405 2313.91 724.974 2330.74 724.974ZM2760.52 931.296C2741.28 931.296 2721.56 929.372 2701.36 925.525C2681.64 922.158 2662.89 916.628 2645.09 908.933C2627.78 901.718 2612.87 892.34 2600.36 880.798L2629.94 792.065C2645.33 807.935 2664.57 819.718 2687.65 827.413C2710.74 835.589 2733.58 839.677 2756.19 839.677C2781.68 839.677 2802.84 834.387 2819.67 823.806C2836.98 813.707 2849.97 798.076 2858.63 776.915C2867.76 755.273 2873.06 728.34 2874.5 696.117L2878.83 630.469H2862.96C2858.15 662.211 2850.21 688.182 2839.15 708.381C2828.57 728.581 2814.86 743.49 2798.03 753.109C2781.68 762.246 2762.2 766.815 2739.59 766.815C2712.18 766.815 2689.1 759.842 2670.34 745.894C2651.58 731.947 2637.4 711.026 2627.78 683.132C2618.64 655.238 2614.07 620.851 2614.07 579.971V421.261H2717.95V554.721C2717.95 599.449 2723 631.672 2733.1 651.39C2743.2 671.109 2758.59 680.968 2779.27 680.968C2790.33 680.968 2800.43 678.082 2809.57 672.311C2818.71 666.059 2826.4 657.161 2832.66 645.619C2839.39 634.076 2844.44 620.129 2847.81 603.777C2851.65 586.944 2853.58 567.947 2853.58 546.786V421.261H2957.46V699.724C2957.46 730.023 2954.81 757.677 2949.52 782.686C2944.23 807.214 2936.3 828.616 2925.72 846.891C2915.62 865.648 2902.63 881.279 2886.76 893.783C2870.89 906.287 2852.37 915.666 2831.21 921.918C2810.53 928.17 2786.97 931.296 2760.52 931.296Z" fill="white"/>
<g clip-path="url(#clip0_2_3)">
<path d="M622.748 346.973C639.155 269.782 599.658 195.984 534.528 182.14C469.398 168.296 403.299 219.649 386.892 296.84C370.484 374.031 409.982 447.829 475.112 461.673C540.241 475.517 606.34 424.164 622.748 346.973Z" fill="#CC44BB"/>
<path d="M267.681 441.326V469.529C224.565 478.906 171.571 502.59 163.569 536.347C138.528 641.942 145.261 805.586 145.261 807.925V810.319C145.261 822 157.103 822 168.767 822H456.277C467.94 822 479.764 822 479.764 810.319V536.347C479.764 505.644 454.527 474.941 397.032 467.868V441.326H267.681Z" fill="#6644DD"/>
<path d="M563.319 416.606V469.529C606.435 478.906 659.429 502.59 667.431 536.347C692.454 641.96 685.739 805.604 685.739 807.926V810.319C685.739 822 673.897 822 662.233 822H374.723C363.06 822 351.236 822 351.236 810.319V536.347C351.236 505.644 376.473 474.941 433.968 467.868V441.326L563.319 416.606Z" fill="#CC44BB"/>
<path d="M355.76 461.655C420.89 447.812 460.387 374.013 443.979 296.823C427.572 219.632 361.473 168.279 296.343 182.122C231.213 195.966 191.716 269.764 208.124 346.955C224.531 424.146 290.63 475.499 355.76 461.655Z" fill="#6644DD"/>
<path d="M435.004 466.35C411.606 473.155 373.544 476.102 329.66 459.527C283.346 442.023 240.747 424.805 224.136 419.018C209.026 413.749 170.463 418.428 161.872 434.164C153.281 449.9 148.423 478.549 169.678 499.518C190.932 520.487 302.886 561.871 334.536 580.482C351.111 590.234 350.146 648.765 351.111 696.561C352.593 768.774 482.979 452.4 435.004 466.35Z" fill="#CC44BB"/>
<path d="M312.495 630.583C336.268 635.905 376.866 645.068 419.644 625.778C464.779 605.416 503.805 576.981 520.005 570.176C534.759 563.978 565.926 557.977 583.091 581.411C593.7 595.878 599.291 624.885 579.394 647.122C559.478 669.377 481.211 717.12 423.305 731.105C374.205 742.965 298.867 741.822 274.826 716.941C237.3 678.093 279.845 623.26 312.495 630.583ZM540.367 486.836C540.367 451.971 571.16 432.967 607.15 419.018C622.064 413.231 660.822 418.428 669.414 434.164C678.005 449.9 682.863 478.549 661.608 499.518C640.354 520.487 540.367 540.491 540.367 486.836Z" fill="#6644DD"/>
</g>
<defs>
<clipPath id="clip0_2_3">
<rect width="643" height="643" fill="white" transform="translate(94 179)"/>
</clipPath>
</defs>
</svg>
