<svg width="1000" height="1000" viewBox="0 0 1000 1000" fill="none" xmlns="http://www.w3.org/2000/svg">
<g clip-path="url(#clip0_1_2)">
<path d="M822.314 261.233C847.831 141.185 786.404 26.4132 685.114 4.88323C583.823 -16.6467 481.025 63.2179 455.508 183.266C429.991 303.314 491.418 418.086 592.708 439.616C693.999 461.145 796.797 381.281 822.314 261.233Z" fill="#CC44BB"/>
<path d="M270.111 407.972V451.833C203.056 466.417 120.639 503.25 108.194 555.75C69.25 719.972 79.7222 974.472 79.7222 978.111V981.833C79.7222 1000 98.1389 1000 116.278 1000H563.417C581.556 1000 599.944 1000 599.944 981.833V555.75C599.944 508 560.694 460.25 471.278 449.25V407.972H270.111Z" fill="#6644DD"/>
<path d="M729.889 369.528V451.833C796.944 466.417 879.361 503.25 891.806 555.75C930.722 720 920.278 974.5 920.278 978.111V981.833C920.278 1000 901.861 1000 883.722 1000H436.583C418.444 1000 400.056 1000 400.056 981.833V555.75C400.056 508 439.306 460.25 528.722 449.25V407.972L729.889 369.528Z" fill="#CC44BB"/>
<path d="M407.091 439.588C508.382 418.058 569.809 303.287 544.292 183.239C518.775 63.1908 415.977 -16.6739 314.686 4.85609C213.396 26.3861 151.969 141.158 177.486 261.206C203.003 381.254 305.801 461.118 407.091 439.588Z" fill="#6644DD"/>
<path d="M530.333 446.889C493.944 457.472 434.75 462.056 366.5 436.278C294.472 409.056 228.222 382.278 202.389 373.278C178.889 365.083 118.917 372.361 105.556 396.833C92.1944 421.306 84.6389 465.861 117.694 498.472C150.75 531.083 324.861 595.444 374.083 624.389C399.861 639.556 398.361 730.583 399.861 804.917C402.167 917.222 604.944 425.194 530.333 446.889Z" fill="#CC44BB"/>
<path d="M339.806 702.306C376.778 710.583 439.917 724.833 506.444 694.833C576.639 663.167 637.333 618.944 662.528 608.361C685.472 598.722 733.944 589.389 760.639 625.833C777.139 648.333 785.833 693.444 754.889 728.028C723.917 762.639 602.194 836.889 512.139 858.639C435.778 877.083 318.611 875.306 281.222 836.611C222.861 776.194 289.028 690.917 339.806 702.306ZM694.194 478.75C694.194 424.528 742.083 394.972 798.056 373.278C821.25 364.278 881.528 372.361 894.889 396.833C908.25 421.306 915.806 465.861 882.75 498.472C849.694 531.083 694.194 562.194 694.194 478.75Z" fill="#6644DD"/>
</g>
<defs>
<clipPath id="clip0_1_2">
<rect width="1000" height="1000" fill="white"/>
</clipPath>
</defs>
</svg>
